<svg version="1.1" id="Layer_1" xmlns="http://www.w3.org/2000/svg" xmlns:xlink="http://www.w3.org/1999/xlink" x="0px" y="0px"
	 width="100%" viewBox="0 0 1024 1024" enable-background="new 0 0 1024 1024" xml:space="preserve">
<path fill="#000000" opacity="1.000000" stroke="none" 
	d="
M602.151245,891.289185 
	C563.908936,909.304321 519.474854,889.217285 505.660187,852.180359 
	C495.314636,824.443909 500.880981,799.138184 519.885864,776.731995 
	C521.997498,774.242493 522.244934,772.579102 520.670593,769.806335 
	C505.949158,743.878723 491.308105,717.904968 476.787262,691.864563 
	C474.862762,688.413452 472.956360,687.353577 468.904633,688.447144 
	C458.601501,691.227905 448.106964,691.022400 437.770782,688.418152 
	C434.410614,687.571533 432.702820,688.386658 431.023682,691.381409 
	C416.521667,717.245789 401.919067,743.054382 387.194366,768.792603 
	C385.286743,772.127014 385.711243,774.273743 388.210602,777.083679 
	C407.404388,798.661621 412.523376,823.714355 402.991699,850.568115 
	C393.078430,878.496826 371.873169,893.951172 342.594025,897.778381 
	C311.336395,901.864197 278.310577,879.908936 268.141296,849.009888 
	C252.040100,800.086853 289.780304,750.947021 340.454987,753.827881 
	C343.762421,754.015930 347.178864,754.325134 350.295959,755.340942 
	C354.872009,756.832092 357.229340,755.195129 359.412506,751.249573 
	C369.168732,733.617676 379.150574,716.110413 389.078278,698.573669 
	C393.591858,690.600647 398.017578,682.571106 402.793335,674.756775 
	C404.638031,671.738403 404.205322,669.831604 401.893860,667.401123 
	C386.008392,650.697388 380.032318,630.425659 383.034515,608.041992 
	C386.838287,579.681763 406.570953,556.218506 435.382996,548.693420 
	C448.202332,545.345276 461.118561,545.358215 473.812653,549.393188 
	C477.180145,550.463562 478.657562,549.235718 480.143311,546.605530 
	C489.647644,529.780334 499.214966,512.990662 508.787567,496.204163 
	C513.821533,487.376648 518.825256,478.529846 524.015991,469.794769 
	C525.820435,466.758240 525.666016,464.613129 523.162048,461.901703 
	C508.854828,446.408875 502.204407,427.882019 503.905304,406.980042 
	C505.325073,389.532806 512.288330,374.053375 525.269470,361.946960 
	C529.377869,358.115356 529.503723,355.399414 526.770447,350.657013 
	C511.964935,324.968109 497.504974,299.079102 483.073120,273.177063 
	C481.412872,270.197235 479.865784,269.340363 476.425446,270.192749 
	C465.770630,272.832703 454.970154,273.083282 444.271576,270.355713 
	C441.007111,269.523468 439.070923,270.119171 437.358429,273.162506 
	C421.509399,301.327759 405.576996,329.446442 389.550507,357.511078 
	C387.904541,360.393372 389.053101,361.990417 390.878845,363.993225 
	C404.312592,378.729797 410.572235,396.180359 410.182190,416.043762 
	C409.513580,450.092377 380.047760,480.966797 346.185791,484.498779 
	C307.980743,488.483704 274.504425,461.357574 268.195129,425.171387 
	C261.206055,385.086090 290.225647,345.779694 330.607330,341.070435 
	C338.557831,340.143250 346.643158,340.362732 354.399200,342.753540 
	C358.079163,343.887939 360.155151,343.042206 362.058411,339.676147 
	C377.719696,311.978210 393.480713,284.336243 409.343842,256.753418 
	C411.166016,253.584976 410.144775,251.701035 408.032318,249.349579 
	C392.385803,231.933105 386.210480,211.574158 389.617249,188.400345 
	C394.192291,157.279419 420.837189,131.924347 452.273407,128.657181 
	C494.874390,124.229645 531.332886,157.293625 531.406250,200.115616 
	C531.439331,219.426895 524.861145,235.917725 511.775452,249.910095 
	C509.922668,251.891235 509.400146,253.368088 510.858032,255.941681 
	C526.375183,283.334229 541.796021,310.781708 557.126526,338.279205 
	C558.772522,341.231537 560.730042,342.194183 563.988403,341.670624 
	C601.133850,335.701965 638.279724,359.360352 645.601746,400.189972 
	C649.695801,423.019714 643.586060,443.888123 627.915466,461.385071 
	C625.076172,464.555206 624.755554,466.829071 626.842834,470.462189 
	C641.031494,495.159058 655.053101,519.952271 669.042542,544.762878 
	C670.762268,547.812988 672.586182,548.728882 676.256042,547.930420 
	C714.810913,539.541870 752.471924,565.114685 760.306396,603.786438 
	C768.548279,644.468811 740.222534,685.064941 697.706726,690.126282 
	C663.222412,694.231506 628.055542,669.381226 620.725708,634.921204 
	C615.301941,609.422058 621.697754,587.097656 639.345154,568.029358 
	C641.719666,565.463623 642.250000,563.795227 640.319519,560.463562 
	C626.038147,535.817505 612.027893,511.013885 598.028381,486.205627 
	C596.476379,483.455322 595.089355,481.664246 591.458557,482.762146 
	C580.826904,485.976898 570.048523,485.644989 559.389282,482.986542 
	C555.987976,482.138245 554.343384,482.869568 552.633911,485.892609 
	C537.792603,512.137634 522.846375,538.324097 507.753235,564.424927 
	C505.847900,567.719910 506.690063,569.815613 508.751556,572.414185 
	C519.221741,585.612061 525.107178,600.563904 525.212097,617.532288 
	C525.329407,636.504761 519.097473,653.185669 506.225464,667.147766 
	C503.555725,670.043640 503.438965,672.116211 505.295807,675.356018 
	C518.299011,698.043518 531.806213,720.481689 543.737244,743.725952 
	C549.007446,753.993469 554.330872,755.773987 565.687439,754.488831 
	C603.360779,750.225708 638.442932,776.150879 643.318726,817.612549 
	C647.264160,851.162903 627.661316,879.787781 602.151245,891.289185 
M465.657013,239.265060 
	C485.627228,235.298660 498.270294,220.861725 498.936157,201.264008 
	C499.530487,183.772614 487.955719,167.648926 470.970123,162.307205 
	C455.000977,157.285141 437.265167,163.684128 427.886444,178.385178 
	C419.155273,192.071259 418.619385,206.586517 426.862000,220.469193 
	C435.229340,234.562073 448.259521,240.923080 465.657013,239.265060 
M316.697968,380.162872 
	C303.128418,390.192810 298.243652,404.053040 300.698334,420.144104 
	C304.071960,442.258972 326.113068,456.304169 347.971527,451.118805 
	C368.860779,446.163361 381.903320,423.138153 376.057678,402.134125 
	C368.823181,376.139648 338.757843,365.413086 316.697968,380.162872 
M592.165588,377.262024 
	C577.668701,370.582184 563.592834,371.828064 551.424561,381.803589 
	C539.159119,391.858734 533.803101,405.345154 537.391785,421.428040 
	C542.621582,444.865448 567.729004,458.513550 589.036377,449.500427 
	C603.394714,443.426788 612.090820,432.730774 613.582275,417.070984 
	C615.247925,399.582397 607.912903,386.463318 592.165588,377.262024 
M301.870239,807.414551 
	C288.745575,834.033081 305.263214,863.256226 334.706024,865.507996 
	C359.170929,867.379089 379.631714,841.481628 373.307037,816.650208 
	C368.888367,799.302002 356.959259,788.800781 339.001740,786.451294 
	C325.270355,784.654663 310.142151,793.002197 301.870239,807.414551 
M479.991699,589.500305 
	C469.820282,580.002869 457.734253,576.839966 444.409454,580.007812 
	C421.569061,585.437805 409.028564,611.284729 418.127228,633.291748 
	C425.234100,650.481140 443.649658,661.091736 460.229309,657.155151 
	C475.186768,653.603760 485.978729,644.978577 490.703186,629.921387 
	C495.515350,614.584717 491.139130,601.455322 479.991699,589.500305 
M726.689941,604.916199 
	C718.044739,584.334351 698.496399,574.413330 678.754883,580.588684 
	C660.216675,586.387634 648.561646,606.431519 652.354736,625.990479 
	C657.693787,653.520386 687.589294,666.380493 711.156921,651.285339 
	C725.976807,641.793152 732.098511,624.059021 726.689941,604.916199 
M596.303284,856.830261 
	C596.932251,856.285278 597.579041,855.759399 598.187561,855.192444 
	C610.424805,843.792175 614.478455,826.932617 608.629761,811.787903 
	C602.722595,796.491760 588.584106,786.762634 571.867310,786.490601 
	C556.377258,786.238525 541.618652,797.382446 535.574707,813.894531 
	C530.437805,827.928528 535.801819,846.619202 547.774963,856.405762 
	C562.324402,868.297852 578.645142,868.589478 596.303284,856.830261 
z"/>
</svg>